<svg xmlns="http://www.w3.org/2000/svg" viewBox="0 0 128 128" width="128" height="128">
  <!-- Face circle -->
  <circle cx="64" cy="64" r="60" fill="#FFCA28"/>
  <circle cx="64" cy="64" r="60" fill="url(#faceGrad0)"/>
  <defs>
    <radialGradient id="faceGrad0" cx="50%" cy="40%" r="60%">
      <stop offset="0%" stop-color="#FFE082"/>
      <stop offset="100%" stop-color="#F9A825"/>
    </radialGradient>
  </defs>
  <!-- Left star eye -->
  <polygon points="38,42 41,52 51,52 43,58 46,68 38,62 30,68 33,58 25,52 35,52" fill="#F57F17" stroke="#E65100" stroke-width="1"/>
  <!-- Right star eye -->
  <polygon points="90,42 93,52 103,52 95,58 98,68 90,62 82,68 85,58 77,52 87,52" fill="#F57F17" stroke="#E65100" stroke-width="1"/>
  <!-- Mouth - big open smile -->
  <path d="M 36 82 Q 64 110 92 82" fill="#E65100" stroke="#BF360C" stroke-width="1.5"/>
  <path d="M 36 82 Q 64 100 92 82" fill="#F44336"/>
  <!-- Cheeks -->
  <circle cx="24" cy="72" r="10" fill="#FF8A65" opacity="0.4"/>
  <circle cx="104" cy="72" r="10" fill="#FF8A65" opacity="0.4"/>
</svg>
